<svg width="170" height="170" viewBox="0 0 170 170" fill="none" xmlns="http://www.w3.org/2000/svg">
<circle cx="85" cy="85" r="85" fill="#FECC4E"/>
<path d="M99.2745 90.491V108.059H46.5689C45.9439 108.053 45.3201 108.001 44.7023 107.906H44.285C43.6965 107.813 43.1163 107.674 42.5501 107.489L42.1768 107.313C41.6873 107.159 41.2101 106.968 40.7494 106.742L40.376 106.544C39.8851 106.285 39.4086 105.999 38.9486 105.688L38.5753 105.402C38.1824 105.111 37.8083 104.796 37.4553 104.458L37.2137 104.238C36.8172 103.835 36.4433 103.409 36.0937 102.965L35.8521 102.635C34.2257 100.38 33.3638 97.6634 33.3925 94.8831V90.491H99.2745Z" fill="url(#paint0_linear_313_55)"/>
<path d="M125.627 60.4045V77.3142H108.058C105.729 77.3142 103.494 78.2397 101.847 79.8871C100.2 81.5344 99.2741 83.7687 99.2741 86.0985V90.4906H33.3921V60.4045C34.9251 61.4104 36.7193 61.9449 38.5528 61.9418H39.8266C42.2498 61.9416 44.5824 61.0205 46.352 59.3651C48.1216 57.7096 49.1959 55.4436 49.3575 53.0257V51.752C49.2706 53.0313 49.4421 54.3149 49.8619 55.5265C50.2816 56.738 50.9409 57.8527 51.8006 58.804C52.6602 59.7554 53.7026 60.5239 54.8656 61.0638C56.0285 61.6038 57.2883 61.9041 58.5698 61.9469C59.8513 61.9896 61.1283 61.774 62.3246 61.3128C63.521 60.8516 64.6123 60.1542 65.5335 59.2623C66.4546 58.3704 67.1868 57.3022 67.6864 56.1213C68.186 54.9404 68.4427 53.6711 68.4413 52.3889V50.9614C68.4413 53.8736 69.5981 56.6665 71.6574 58.7257C73.7166 60.7849 76.5095 61.9418 79.4216 61.9418C82.3338 61.9418 85.1267 60.7849 87.1859 58.7257C89.2451 56.6665 90.402 53.8736 90.402 50.9614V52.3889C90.4006 53.6711 90.6573 54.9404 91.1569 56.1213C91.6564 57.3022 92.3886 58.3704 93.3098 59.2623C94.2309 60.1542 95.3222 60.8516 96.5186 61.3128C97.715 61.774 98.992 61.9896 100.273 61.9469C101.555 61.9041 102.815 61.6038 103.978 61.0638C105.141 60.5239 106.183 59.7554 107.043 58.804C107.902 57.8527 108.562 56.738 108.981 55.5265C109.401 54.3149 109.573 53.0313 109.486 51.752V53.0257C109.649 55.4741 110.748 57.7658 112.555 59.4258C114.362 61.0858 116.739 61.9867 119.192 61.9418H120.466C122.3 61.9449 124.094 61.4104 125.627 60.4045Z" fill="url(#paint1_linear_313_55)"/>
<path d="M68.5296 108.06H90.4902L92.6863 125.628H66.3335L68.5296 108.06Z" fill="#4795EA"/>
<path d="M99.2743 127.824H59.7451C59.1627 127.824 58.6041 127.593 58.1923 127.181C57.7804 126.769 57.5491 126.211 57.5491 125.628C57.5491 125.046 57.7804 124.487 58.1923 124.075C58.6041 123.663 59.1627 123.432 59.7451 123.432H99.2743C99.8567 123.432 100.415 123.663 100.827 124.075C101.239 124.487 101.47 125.046 101.47 125.628C101.47 126.211 101.239 126.769 100.827 127.181C100.415 127.593 99.8567 127.824 99.2743 127.824Z" fill="#54A5FF"/>
<path d="M79.5098 101.471C80.7226 101.471 81.7059 100.488 81.7059 99.2749C81.7059 98.0621 80.7226 97.0789 79.5098 97.0789C78.2969 97.0789 77.3137 98.0621 77.3137 99.2749C77.3137 100.488 78.2969 101.471 79.5098 101.471Z" fill="#F0F7FC"/>
<path d="M50.9607 29.0003L50.3677 37.7845L49.4454 51.7515V53.0252C49.2829 55.4583 48.1962 57.7371 46.4078 59.3948C44.6195 61.0524 42.265 61.9635 39.8266 61.9413H38.5529C36.7193 61.9444 34.9251 61.41 33.3921 60.404C32.0471 59.5429 30.94 58.3576 30.1725 56.957C29.4051 55.5564 29.0019 53.9854 29 52.3884V51.9052C29.003 51.279 29.0618 50.6544 29.1757 50.0386L33.6996 35.2371C34.2496 33.4216 35.3726 31.833 36.9006 30.7088C38.4286 29.5845 40.2795 28.9852 42.1764 29.0003H50.9607Z" fill="url(#paint2_linear_313_55)"/>
<path d="M68.5293 29.0005V52.3886C68.5307 53.6708 68.274 54.9401 67.7744 56.121C67.2749 57.3019 66.5427 58.3701 65.6215 59.262C64.7004 60.1539 63.6091 60.8513 62.4127 61.3125C61.2163 61.7737 59.9393 61.9893 58.6579 61.9466C57.3764 61.9038 56.1166 61.6035 54.9536 61.0636C53.7907 60.5236 52.7483 59.7551 51.8887 58.8037C51.029 57.8524 50.3697 56.7377 49.9499 55.5262C49.5302 54.3146 49.3587 53.031 49.4455 51.7517L50.3679 37.7847L50.9608 29.0005H68.5293Z" fill="url(#paint3_linear_313_55)"/>
<path d="M90.49 29.0005V50.9611C90.49 53.8733 89.3331 56.6662 87.2739 58.7254C85.2147 60.7846 82.4218 61.9415 79.5096 61.9415C76.5975 61.9415 73.8046 60.7846 71.7454 58.7254C69.6861 56.6662 68.5293 53.8733 68.5293 50.9611V29.0005H90.49Z" fill="url(#paint4_linear_313_55)"/>
<path d="M109.574 51.7517C109.661 53.031 109.489 54.3146 109.07 55.5262C108.65 56.7377 107.991 57.8524 107.131 58.8037C106.271 59.7551 105.229 60.5236 104.066 61.0636C102.903 61.6035 101.643 61.9038 100.362 61.9466C99.0802 61.9893 97.8033 61.7737 96.6069 61.3125C95.4105 60.8513 94.3192 60.1539 93.3981 59.262C92.4769 58.3701 91.7447 57.3019 91.2451 56.121C90.7456 54.9401 90.4888 53.6708 90.4902 52.3886V29.0005H108.059L108.652 37.7847L109.574 51.7517Z" fill="url(#paint5_linear_313_55)"/>
<path d="M130.019 51.9055V52.3886C130.018 53.9857 129.614 55.5567 128.847 56.9572C128.08 58.3578 126.972 59.5431 125.627 60.4042C124.094 61.4102 122.3 61.9446 120.467 61.9415H119.193C116.77 61.9413 114.437 61.0202 112.667 59.3648C110.898 57.7093 109.824 55.4433 109.662 53.0254V51.7517L108.652 37.7847L108.059 29.0005H116.843C118.725 29.0043 120.556 29.6124 122.066 30.7352C123.577 31.8581 124.686 33.4362 125.232 35.2373L129.756 50.0388C129.899 50.6519 129.988 51.2766 130.019 51.9055Z" fill="url(#paint6_linear_313_55)"/>
<path d="M119.039 132.216C120.252 132.216 121.235 131.233 121.235 130.02C121.235 128.807 120.252 127.824 119.039 127.824C117.826 127.824 116.843 128.807 116.843 130.02C116.843 131.233 117.826 132.216 119.039 132.216Z" fill="#231F20"/>
<path d="M130.019 75.1182H108.059C105.147 75.1182 102.354 76.275 100.294 78.3342C98.2352 80.3934 97.0784 83.1863 97.0784 86.0985V130.02C97.0784 132.932 98.2352 135.725 100.294 137.784C102.354 139.843 105.147 141 108.059 141H130.019C132.932 141 135.724 139.843 137.784 137.784C139.843 135.725 141 132.932 141 130.02V86.0985C141 83.1863 139.843 80.3934 137.784 78.3342C135.724 76.275 132.932 75.1182 130.019 75.1182ZM136.608 130.02C136.608 131.767 135.913 133.443 134.678 134.678C133.442 135.914 131.767 136.608 130.019 136.608H108.059C106.311 136.608 104.636 135.914 103.4 134.678C102.165 133.443 101.47 131.767 101.47 130.02V86.0985C101.47 84.3512 102.165 82.6755 103.4 81.4399C104.636 80.2044 106.311 79.5103 108.059 79.5103H111.55L113.088 81.0695C113.293 81.273 113.536 81.4341 113.804 81.5434C114.071 81.6526 114.358 81.708 114.647 81.7064H123.431C123.72 81.708 124.007 81.6526 124.274 81.5434C124.542 81.4341 124.785 81.273 124.99 81.0695L126.528 79.5103H130.019C131.767 79.5103 133.442 80.2044 134.678 81.4399C135.913 82.6755 136.608 84.3512 136.608 86.0985V130.02Z" fill="url(#paint7_linear_313_55)"/>
<path d="M136.608 86.0985V130.02C136.608 131.767 135.913 133.443 134.678 134.678C133.442 135.914 131.767 136.608 130.019 136.608H108.059C106.311 136.608 104.636 135.914 103.4 134.678C102.165 133.443 101.47 131.767 101.47 130.02V86.0985C101.47 84.3512 102.165 82.6754 103.4 81.4399C104.636 80.2044 106.311 79.5103 108.059 79.5103H111.55L113.088 81.0695C113.293 81.273 113.536 81.434 113.804 81.5433C114.071 81.6526 114.358 81.708 114.647 81.7063H123.431C123.72 81.708 124.007 81.6526 124.274 81.5433C124.542 81.434 124.785 81.273 124.99 81.0695L126.528 79.5103H130.019C131.767 79.5103 133.442 80.2044 134.678 81.4399C135.913 82.6754 136.608 84.3512 136.608 86.0985Z" fill="#F0F7FC"/>
<path d="M123.431 105.578C122.924 105.578 122.438 105.376 122.08 105.018C121.722 104.66 121.52 104.174 121.52 103.667V101.471C121.52 100.813 121.259 100.182 120.794 99.7162C120.328 99.2508 119.697 98.9894 119.039 98.9894C118.381 98.9894 117.749 99.2508 117.284 99.7162C116.819 100.182 116.557 100.813 116.557 101.471V103.667C116.557 104.174 116.356 104.66 115.998 105.018C115.639 105.376 115.153 105.578 114.647 105.578C114.14 105.578 113.654 105.376 113.296 105.018C112.937 104.66 112.736 104.174 112.736 103.667V101.471C112.736 99.7993 113.4 98.1962 114.582 97.0142C115.764 95.8322 117.367 95.1682 119.039 95.1682C120.71 95.1682 122.313 95.8322 123.495 97.0142C124.677 98.1962 125.341 99.7993 125.341 101.471V103.667C125.341 104.174 125.14 104.66 124.782 105.018C124.424 105.376 123.938 105.578 123.431 105.578Z" fill="#EB7F58"/>
<path d="M110.255 103.667H127.824V114.648C127.824 115.813 127.361 116.93 126.537 117.754C125.714 118.577 124.596 119.04 123.432 119.04H114.647C113.482 119.04 112.365 118.577 111.542 117.754C110.718 116.93 110.255 115.813 110.255 114.648V103.667Z" fill="url(#paint8_linear_313_55)"/>
<defs>
<linearGradient id="paint0_linear_313_55" x1="33.3925" y1="99.2752" x2="99.2745" y2="99.2752" gradientUnits="userSpaceOnUse">
<stop stop-color="#54A5FF"/>
<stop offset="1" stop-color="#8AD3FE"/>
</linearGradient>
<linearGradient id="paint1_linear_313_55" x1="33.3921" y1="70.726" x2="125.627" y2="70.726" gradientUnits="userSpaceOnUse">
<stop stop-color="#D3E6F5"/>
<stop offset="1" stop-color="#F0F7FC"/>
</linearGradient>
<linearGradient id="paint2_linear_313_55" x1="29" y1="45.4708" x2="50.9607" y2="45.4708" gradientUnits="userSpaceOnUse">
<stop stop-color="#54A5FF"/>
<stop offset="1" stop-color="#8AD3FE"/>
</linearGradient>
<linearGradient id="paint3_linear_313_55" x1="49.4236" y1="45.471" x2="68.5293" y2="45.471" gradientUnits="userSpaceOnUse">
<stop stop-color="#54A5FF"/>
<stop offset="1" stop-color="#8AD3FE"/>
</linearGradient>
<linearGradient id="paint4_linear_313_55" x1="68.5293" y1="45.471" x2="90.49" y2="45.471" gradientUnits="userSpaceOnUse">
<stop stop-color="#54A5FF"/>
<stop offset="1" stop-color="#8AD3FE"/>
</linearGradient>
<linearGradient id="paint5_linear_313_55" x1="90.4902" y1="45.471" x2="109.596" y2="45.471" gradientUnits="userSpaceOnUse">
<stop stop-color="#54A5FF"/>
<stop offset="1" stop-color="#8AD3FE"/>
</linearGradient>
<linearGradient id="paint6_linear_313_55" x1="108.059" y1="45.471" x2="130.019" y2="45.471" gradientUnits="userSpaceOnUse">
<stop stop-color="#54A5FF"/>
<stop offset="1" stop-color="#8AD3FE"/>
</linearGradient>
<linearGradient id="paint7_linear_313_55" x1="97.0784" y1="108.059" x2="141" y2="108.059" gradientUnits="userSpaceOnUse">
<stop stop-color="#FE9661"/>
<stop offset="1" stop-color="#FFB369"/>
</linearGradient>
<linearGradient id="paint8_linear_313_55" x1="110.255" y1="111.354" x2="127.824" y2="111.354" gradientUnits="userSpaceOnUse">
<stop stop-color="#FE9661"/>
<stop offset="1" stop-color="#FFB369"/>
</linearGradient>
</defs>
</svg>
