<svg width="32" height="32" viewBox="0 0 32 32" fill="none" xmlns="http://www.w3.org/2000/svg">
<circle cx="16" cy="16" r="16" fill="url(#paint0_linear_178_48)"/>
<path d="M8.88892 7.94182C8.88892 6.14771 10.3433 4.6933 12.1374 4.6933V4.6933C13.517 4.6933 15.9645 4.6933 15.9645 4.6933H20.5871C21.9418 4.6933 23.04 5.79151 23.04 7.14622V7.14622V7.14622C23.04 8.50093 21.9437 9.59914 20.589 9.59914C18.134 9.59914 14.6161 9.59914 13.873 9.59914C8.88892 9.59914 8.88892 17.8401 8.88892 17.8401V7.94182Z" fill="#F0F2F5"/>
<path d="M8.88892 17.2426C8.88892 15.9591 9.92938 14.9186 11.2129 14.9186V14.9186C12.1997 14.9186 13.9507 14.9186 13.9507 14.9186H16.6958C17.9752 14.9186 19.0124 15.9558 19.0124 17.2353V17.2353V17.2353C19.0124 18.5147 17.976 19.5519 16.6965 19.5519C15.0065 19.5519 12.9314 19.5519 12.4544 19.5519C8.88892 19.5519 8.88892 27.3351 8.88892 27.3351V17.2426Z" fill="#F0F2F5"/>
<defs>
<linearGradient id="paint0_linear_178_48" x1="16" y1="0" x2="16" y2="32" gradientUnits="userSpaceOnUse">
<stop stop-color="#FF00BB"/>
<stop offset="1" stop-color="#C7143F"/>
</linearGradient>
</defs>
</svg>
