<svg width="512" height="512" viewBox="0 0 512 512" fill="none" xmlns="http://www.w3.org/2000/svg">
<circle cx="256" cy="256" r="256" fill="black"/>
<path d="M114 331C155 331 179 312 179 312V281C179 276 183 272 188 272H194V266H130V272H146V312C146 312 135 325 117 325C95.8 325 76 305 76 256C76 207 96 187 117 187C141 187 156.2 210 160 227L162 236H167V196C167 196 150 181 114 181C69 181 36 214 36 256C36 298 69 331 114 331Z" fill="white"/>
<path d="M271.047 331C310.047 331 329.047 312 329.047 287C329.047 233 249.047 234 249.047 204C249.047 195 257.047 187 272.047 187C291.047 187 302.447 201 307.047 219L310.047 231H315.047V190C315.047 190 300.047 181 273.047 181C239.047 181 221.047 199 221.047 221C221.047 275 301.047 274 301.047 304C301.047 315 291.047 325 271.047 325C248.047 325 227.047 305 222.047 280L220.047 270H215.047V320C215.047 320 236.047 331 271.047 331Z" fill="white"/>
<path d="M295.5 449.5H304.5L361.153 319L375.553 282H421.953L437.953 319H419.953V326H493.953V319H489.953C480.953 319 476.753 316 472.953 307L419.953 183L413 163.5L405.953 183L352.5 319C354.5 315 352.347 319.5 352.5 319L295.5 449.5ZM377.953 276L397.753 225L419.553 276H377.953Z" fill="white"/>
<path d="M407 180.982L425.951 123L435 123L415.555 183.778L407 180.982Z" fill="white"/>
</svg>
