<svg width="512" height="512" viewBox="0 0 512 512" fill="none" xmlns="http://www.w3.org/2000/svg">
<circle cx="256" cy="256" r="256" fill="#ED1C24"/>
<path d="M385.432 178.773H433.489V142.998H346.475V179.753C345.307 171.769 341.948 164.265 336.771 158.076C326.461 145.795 309.398 140.034 293.676 140.034C268.585 140.034 241.406 155.048 238.184 181.673C224.614 157.832 196.61 139.983 164.805 139.983C117.831 139.983 79.4661 174.456 79.4661 222.087C79.4661 267.991 115.885 305.724 164.16 305.724C193.427 305.724 221.263 291.626 236.728 266.56C240.697 285.182 255.169 305.505 293.019 305.505C325.971 305.505 341.307 289.886 346.475 271.999V302.503H385.432V241.701H431.826V205.926H385.432V178.773ZM246.019 211.738H154.521V244.278H202.203C197.886 259.743 184.316 269.924 164.057 269.924C144.018 269.924 120.305 255.49 120.305 222.087C120.305 190.616 143.799 175.693 163.838 175.693C181.081 175.693 192.718 185.191 198.968 196.39H239.035C240.266 201.943 242.689 207.162 246.135 211.687L246.019 211.738ZM276.858 232.641C301.434 242.951 308.11 245.529 308.11 256.135C308.1 258.155 307.691 260.153 306.909 262.015C306.126 263.878 304.984 265.567 303.547 266.988C302.111 268.409 300.409 269.532 298.538 270.295C296.668 271.057 294.665 271.444 292.645 271.432C287.49 271.432 276.046 268.197 276.046 249.665H244.602C247.758 240.144 249.338 230.171 249.28 220.141V215.579C258.301 225.09 270.389 230.012 276.897 232.641H276.858ZM346.449 241.959C342.583 230.36 332.685 220.476 311.319 210.875C282.658 197.988 278.34 196.003 278.34 186.531C278.34 178.979 285.248 174.031 292.362 174.031C304.849 174.031 306.138 184.16 307.001 189.495H346.449V241.907V241.959Z" fill="white"/>
<path d="M418.939 331.113H433.115C433.227 327.114 431.916 323.205 429.416 320.082C425.782 315.778 419.815 313.742 414.3 313.742C407.856 313.742 401.013 316.564 397.379 321.744V314.747H361.063V322.891C360.071 321.311 358.821 319.908 357.364 318.742C353.743 315.958 349.967 314.747 340.134 314.747H322.466V366.089L302.053 314.747H290.802L268.353 370.651H283.701L286.64 362.571H306.061L308.78 370.651H336.139V352.609H336.281L349.168 370.651H365.496L350.302 351.617C360.947 349.929 364.246 340.521 364.246 334.077C364.241 331.792 363.876 329.522 363.164 327.35H372.107V370.716H386.386V327.338H394.995C394.802 328.283 394.703 329.246 394.698 330.211C394.698 340.714 404.441 344.645 408.372 346.23C416.98 349.851 419.326 350.753 419.326 354.465C419.322 355.175 419.179 355.876 418.903 356.53C418.628 357.184 418.226 357.777 417.721 358.276C417.215 358.774 416.616 359.167 415.959 359.433C415.301 359.699 414.597 359.833 413.887 359.826C412.07 359.826 408.075 358.692 408.075 352.197H393.899V354.014C393.899 361.192 397.907 371.759 414.081 371.759C428.888 371.759 433.566 362.738 433.566 354.62C433.566 348.112 430.924 343.279 420.498 338.601C410.446 334.065 408.9 333.446 408.9 330.057C408.935 329.447 409.089 328.849 409.354 328.299C409.62 327.748 409.991 327.256 410.447 326.849C410.903 326.442 411.435 326.129 412.012 325.927C412.589 325.726 413.2 325.64 413.81 325.675C418.192 325.675 418.643 329.232 418.965 331.113H418.939ZM302.272 351.295H290.557L296.305 332.17H296.511L302.259 351.295H302.272ZM350.547 334.889C350.547 337.609 349.568 342.905 341.178 342.905H336.126V327.338H341.281C346.797 327.338 350.496 329.825 350.496 334.889H350.547ZM277.335 333.678C277.393 330.876 276.832 328.096 275.691 325.537C274.551 322.977 272.859 320.701 270.737 318.871C267.709 316.383 263.868 314.798 253.507 314.798H235.259V370.703H248.932V353.176H255.131C263.83 353.176 267.605 351.591 271.459 348.344C275.003 345.315 277.348 339.323 277.348 333.678H277.335ZM263.662 333.91C263.662 340.637 257.463 340.637 254.744 340.637H248.919V327.338H254.216C257.309 327.338 263.662 327.338 263.662 333.91ZM223.712 370.703L208.531 351.668C219.188 349.929 222.488 340.521 222.488 334.077C222.561 331.18 221.982 328.303 220.793 325.66C219.604 323.016 217.835 320.674 215.619 318.806C211.985 316.023 208.209 314.811 198.389 314.811H180.707V362.352L161.815 314.747H150.564L136.518 349.722H122.226C121.324 351.694 117.689 359.169 108.772 359.169C99.4799 359.169 93.7451 351.011 93.7451 342.544C93.7451 334.619 99.1061 326.229 108.694 326.229C111.679 326.261 114.58 327.214 117.002 328.958C119.424 330.702 121.249 333.152 122.226 335.972H137.188C135.68 327.209 126.298 313.69 108.772 313.69C104.891 313.585 101.029 314.26 97.4139 315.675C93.7989 317.09 90.5048 319.216 87.7266 321.928C84.9484 324.639 82.7426 327.88 81.24 331.46C79.7374 335.039 78.9685 338.884 78.9789 342.766C78.9892 346.648 79.7786 350.488 81.3003 354.059C82.822 357.631 85.045 360.86 87.8376 363.557C90.6302 366.253 93.9357 368.362 97.5581 369.758C101.18 371.153 105.046 371.808 108.926 371.682C113.48 371.73 117.981 370.697 122.059 368.667C126.136 366.637 129.674 363.669 132.381 360.006L128.115 370.625H143.451L146.402 362.545H165.823L168.542 370.625H194.316V352.583H194.471L207.358 370.625L223.712 370.703ZM161.982 351.295H150.333L156.042 332.17H156.261L162.008 351.295H161.982ZM199.355 342.905H194.291V327.338H199.445C204.961 327.338 208.66 329.825 208.66 334.889C208.66 337.609 207.68 342.905 199.291 342.905H199.355Z" fill="white"/>
</svg>
