<?xml version="1.0" encoding="UTF-8"?>
    <svg id="Layer_1" xmlns="http://www.w3.org/2000/svg" xmlns:xlink="http://www.w3.org/1999/xlink" viewBox="0 0 800 800"><defs><clipPath id="clippath"><rect x="184.5733" y="116.8395" width="430.8533" height="566.321" style="fill:none;"/></clipPath></defs><circle cx="400" cy="400" r="378.7883" style="fill:#20271f;"/>
        <g style="clip-path:url(#clippath);"><path d="m609.8355,233.1712c2.5818-2.408,4.3792-5.5377,5.1577-8.9812.7784-3.4442.5022-7.0423-.793-10.3273-1.2945-3.2843-3.5479-6.1033-6.4661-8.0904-2.9182-1.9871-6.3663-3.0503-9.8964-3.051h-66.4571l56.7933-55.7391c6.9294-6.8043,7.0384-17.9412.2353-24.8706-6.8031-6.9383-17.9405-7.0407-24.8699-.2377l-82.3775,80.8461H202.1611c-3.5301.0013-6.9782,1.0646-9.8963,3.0517-2.9181,1.9871-5.1712,4.8055-6.4667,8.0904-1.2943,3.2843-1.5702,6.8824-.7917,10.3259.7785,3.4442,2.5752,6.5732,5.1564,8.9818l192.2514,179.4227v235.2446h-25.4045c-9.7517,0-17.6584,7.908-17.6584,17.6617s7.9067,17.6617,17.6584,17.6617h85.9803c9.7517,0,17.6584-7.908,17.6584-17.6617s-7.9067-17.6617-17.6584-17.6617h-25.4052v-235.2433l192.2505-179.4227Zm-114.2971,4.7255h57.6795l-15.3303,14.3067c-1.5218-.4276-3.0966-.7335-4.7585-.7335h-51.4202l13.8296-13.5732Zm-248.7578,0h198.5416l-13.8296,13.5732-164.7565.7335-19.9556-14.3067Zm52.2352,48.7538h96.6321l-11.1249,10.9167c-6.9294,6.8044-7.0384,17.9412-.2379,24.8745,1.6362,1.6712,3.5889,2.9981,5.7452,3.9028,2.1556.9047,4.4704,1.3699,6.8084,1.3666,4.444,0,8.8966-1.6725,12.317-5.0354l36.7091-36.0251h55.1182l-100.9842,94.2472-100.9829-94.2472Z" style="fill:#35fd7e;"/>
        </g>
</svg>