<svg width="232" height="232" viewBox="0 0 232 232" fill="none" xmlns="http://www.w3.org/2000/svg">
<circle cx="116" cy="116" r="116" fill="#F4608A"/>
<path d="M181.526 140H35V54.1053C35 51.5208 35.9878 48.9339 37.9608 46.9608C38.8979 46.021 40.0115 45.2755 41.2376 44.7674C42.4636 44.2593 43.7781 43.9985 45.1053 44H171.421C174.005 44 176.595 44.9878 178.565 46.9608C179.505 47.898 180.251 49.0116 180.759 50.2376C181.267 51.4637 181.528 52.7781 181.526 54.1053V140Z" fill="#2D2829"/>
<path d="M181.526 150.105C181.528 151.432 181.267 152.747 180.759 153.973C180.251 155.199 179.505 156.313 178.565 157.25C177.628 158.19 176.515 158.935 175.289 159.443C174.063 159.951 172.748 160.212 171.421 160.211H45.1053C43.7781 160.212 42.4636 159.951 41.2376 159.443C40.0115 158.935 38.8979 158.19 37.9608 157.25C37.0211 156.313 36.2757 155.199 35.7676 153.973C35.2595 152.747 34.9986 151.432 35 150.105V140H181.526V150.105Z" fill="#DFE3E6"/>
<path d="M85.5264 160.21H131V182.947H85.5264V160.21Z" fill="#CFD3D6"/>
<path d="M77.9475 182.948H138.579V188H77.9475V182.948Z" fill="#DFE3E6"/>
<path d="M45.1052 54.1052H171.421V129.895H45.1052V54.1052Z" fill="white"/>
<path d="M50.158 59.158H166.368V124.842H50.158V59.158Z" fill="#F4608A"/>
<path d="M77.9474 104.632V81.8949C77.9474 79.9547 77.2072 78.017 75.7268 76.5365C74.2464 75.0561 72.3087 74.3159 70.3685 74.3159C68.4283 74.3159 66.4906 75.0561 65.0102 76.5365C63.5298 78.017 62.7896 79.9547 62.7896 81.8949V104.632" stroke="white" stroke-width="2" stroke-miterlimit="10" stroke-linecap="square"/>
<path d="M62.7896 92H77.9474" stroke="white" stroke-width="2" stroke-miterlimit="10"/>
<path d="M88.0525 74.3159V104.632" stroke="white" stroke-width="2" stroke-miterlimit="10" stroke-linecap="square"/>
<path d="M88.0525 74.3159H95.6314C97.5716 74.3159 99.5093 75.0561 100.99 76.5365C102.47 78.017 103.21 79.9547 103.21 81.8949V84.4212C103.21 86.3614 102.47 88.2991 100.99 89.7795C99.5093 91.2599 97.5716 92.0001 95.6314 92.0001H88.0525M118.368 74.3159V104.632M110.789 74.3159H125.947M110.789 104.632H125.947" stroke="white" stroke-width="2" stroke-miterlimit="10"/>
<path d="M131 74.3159H136.053M141.105 74.3159H146.158M151.211 74.3159H156.263" stroke="white" stroke-width="2" stroke-miterlimit="10"/>
<path d="M196.684 99.5789C196.684 97.6387 195.944 95.7011 194.464 94.2206C192.983 92.7402 191.045 92 189.105 92H138.579C136.639 92 134.701 92.7402 133.221 94.2206C131.74 95.7011 131 97.6387 131 99.5789V180.421C131 182.361 131.74 184.299 133.221 185.779C134.701 187.26 136.639 188 138.579 188H189.105C191.045 188 192.983 187.26 194.464 185.779C195.944 184.299 196.684 182.361 196.684 180.421V99.5789Z" fill="#474545"/>
<path d="M136.052 107.158H191.631V172.842H136.052V107.158Z" fill="white"/>
<path d="M161.316 99.5789H166.369" stroke="#5E5C5C" stroke-width="2" stroke-miterlimit="10"/>
<path d="M158.789 180.421H168.895" stroke="#5E5C5C" stroke-width="2" stroke-miterlimit="10" stroke-linecap="round"/>
<path d="M173.947 132.421L181.526 140L173.947 147.579M153.737 132.421L146.158 140L153.737 147.579M166.368 124.842L161.316 155.158" stroke="#474545" stroke-width="2" stroke-miterlimit="10"/>
</svg>
