<svg width="627" height="627" viewBox="0 0 627 627" fill="none" xmlns="http://www.w3.org/2000/svg">
<circle cx="313.5" cy="313.5" r="313.5" fill="#F7F2BB"/>
<path d="M540.807 219.425C540.807 204.029 524.141 194.407 510.807 202.105L332.246 305.196C326.058 308.768 322.246 315.371 322.246 322.516V528.697C322.246 544.093 338.913 553.715 352.246 546.018L530.807 442.927C536.995 439.354 540.807 432.752 540.807 425.606V219.425Z" fill="#83AD54"/>
<path d="M363.797 315.754C354.549 321.095 346.976 334.222 346.976 344.907C346.976 355.596 354.553 359.967 363.797 354.623C373.06 349.282 380.634 336.156 380.634 325.47C380.634 314.789 373.056 310.406 363.797 315.754ZM431.527 354.623C422.271 359.967 414.698 373.09 414.698 383.779C414.698 394.464 422.275 398.836 431.527 393.5C440.79 388.155 448.356 375.032 448.356 364.347C448.36 353.654 440.79 349.278 431.527 354.623V354.623ZM499.248 393.5C489.993 398.836 482.419 411.963 482.419 422.652C482.419 433.337 489.997 437.713 499.248 432.372C508.512 427.032 516.077 413.901 516.077 403.216C516.077 392.531 508.512 388.155 499.248 393.5Z" fill="#F7F2BB"/>
<path d="M82 219.426C82 204.03 98.6668 194.407 112 202.106L290.553 305.195C296.741 308.768 300.553 315.371 300.553 322.516V528.696C300.553 544.092 283.886 553.715 270.553 546.017L91.9999 442.927C85.8119 439.354 82 432.752 82 425.607V219.426Z" fill="#010400"/>
<path d="M235.935 322.8C248.144 329.846 258.128 347.156 258.128 361.247C258.128 375.339 248.144 381.109 235.935 374.063C223.718 367.017 213.734 349.708 213.734 335.616C213.734 321.524 223.718 315.754 235.935 322.8ZM146.626 374.059C158.827 381.105 168.819 398.415 168.819 412.507C168.819 426.598 158.827 432.368 146.626 425.322C134.409 418.276 124.425 400.967 124.425 386.875C124.425 372.783 134.409 367.013 146.626 374.059V374.059Z" fill="#F7F2BB"/>
<path d="M125.811 151.864C112.478 159.562 112.478 178.807 125.811 186.505L304.365 289.595C310.553 293.168 318.177 293.168 324.365 289.595L502.926 186.505C516.259 178.807 516.259 159.562 502.926 151.864L324.365 48.7735C318.177 45.2008 310.553 45.2009 304.365 48.7736L125.811 151.864Z" fill="#B73C82"/>
<g filter="url(#filter0_d_69202_42)">
<path d="M290.089 250.524L181.153 189.648C179.543 188.748 179.936 186.324 181.737 185.929C285.274 163.235 344.454 136.683 310.134 126.638C284.934 120.56 268.692 118.954 240.571 120.917C238.501 121.062 237.554 118.336 239.288 117.196L291.26 83.0433C291.877 82.6379 292.667 82.6053 293.316 82.9586L450.199 168.456C451.52 169.176 451.603 171.042 450.352 171.876L392.389 210.518C391.059 211.405 389.285 210.443 389.316 208.846C389.79 183.947 394.519 169.801 379.918 164.934C336.997 155.677 314.75 178.146 292.994 249.325C292.62 250.548 291.205 251.148 290.089 250.524Z" fill="black"/>
<path d="M290.089 250.524L181.153 189.648C179.543 188.748 179.936 186.324 181.737 185.929C285.274 163.235 344.454 136.683 310.134 126.638C284.934 120.56 268.692 118.954 240.571 120.917C238.501 121.062 237.554 118.336 239.288 117.196L291.26 83.0433C291.877 82.6379 292.667 82.6053 293.316 82.9586L450.199 168.456C451.52 169.176 451.603 171.042 450.352 171.876L392.389 210.518C391.059 211.405 389.285 210.443 389.316 208.846C389.79 183.947 394.519 169.801 379.918 164.934C336.997 155.677 314.75 178.146 292.994 249.325C292.62 250.548 291.205 251.148 290.089 250.524Z" stroke="black"/>
</g>
<defs>
<filter id="filter0_d_69202_42" x="175.638" y="82.2147" width="280.104" height="177.06" filterUnits="userSpaceOnUse" color-interpolation-filters="sRGB">
<feFlood flood-opacity="0" result="BackgroundImageFix"/>
<feColorMatrix in="SourceAlpha" type="matrix" values="0 0 0 0 0 0 0 0 0 0 0 0 0 0 0 0 0 0 127 0" result="hardAlpha"/>
<feOffset dy="4"/>
<feGaussianBlur stdDeviation="2"/>
<feComposite in2="hardAlpha" operator="out"/>
<feColorMatrix type="matrix" values="0 0 0 0 0 0 0 0 0 0 0 0 0 0 0 0 0 0 0.25 0"/>
<feBlend mode="normal" in2="BackgroundImageFix" result="effect1_dropShadow_69202_42"/>
<feBlend mode="normal" in="SourceGraphic" in2="effect1_dropShadow_69202_42" result="shape"/>
</filter>
</defs>
</svg>
