<svg width="40" height="40" viewBox="0 0 40 40" fill="none" xmlns="http://www.w3.org/2000/svg">
<circle cx="20" cy="20" r="20" fill="url(#paint0_linear_6_3)"/>
<path d="M35.0833 11.4583C33.9872 11.9339 32.8279 12.2483 31.6417 12.3917C32.8932 11.644 33.831 10.4678 34.2812 9.08125C33.1052 9.78134 31.8178 10.2746 30.475 10.5396C29.5775 9.56625 28.3822 8.91835 27.0768 8.69749C25.7714 8.47664 24.4295 8.69531 23.2618 9.31924C22.094 9.94316 21.1664 10.937 20.6243 12.145C20.0823 13.3529 19.9565 14.7066 20.2667 15.9938C17.8887 15.8735 15.5627 15.2543 13.4397 14.1765C11.3167 13.0986 9.44415 11.5862 7.94375 9.7375C7.41749 10.6565 7.14096 11.6972 7.14166 12.7563C7.1398 13.7397 7.38115 14.7084 7.84422 15.576C8.3073 16.4437 8.97773 17.1833 9.79583 17.7292C8.84496 17.7033 7.91441 17.4481 7.08333 16.9854V17.0583C7.09046 18.4363 7.57332 19.7695 8.45025 20.8325C9.32717 21.8954 10.5443 22.6228 11.8958 22.8917C11.3756 23.05 10.8354 23.1335 10.2917 23.1396C9.91525 23.1352 9.53978 23.1011 9.16875 23.0375C9.55362 24.2229 10.2984 25.2588 11.2995 26.0011C12.3006 26.7434 13.5081 27.1552 14.7542 27.1792C12.6501 28.8348 10.0523 29.7383 7.375 29.7458C6.88753 29.7474 6.40045 29.7182 5.91666 29.6583C8.65021 31.4233 11.8358 32.3602 15.0896 32.3563C17.335 32.3796 19.5625 31.9552 21.642 31.108C23.7216 30.2608 25.6115 29.0077 27.2013 27.422C28.7912 25.8362 30.0491 23.9495 30.9016 21.8722C31.7542 19.7948 32.1842 17.5684 32.1667 15.3229C32.1667 15.075 32.1667 14.8125 32.1667 14.55C33.311 13.6966 34.298 12.6504 35.0833 11.4583Z" fill="#F1F5F9"/>
<defs>
<linearGradient id="paint0_linear_6_3" x1="20" y1="0" x2="20" y2="40" gradientUnits="userSpaceOnUse">
<stop stop-color="#FF00BB"/>
<stop offset="1" stop-color="#CD0C79"/>
</linearGradient>
</defs>
</svg>
