<svg width="512" height="512" viewBox="0 0 512 512" fill="none" xmlns="http://www.w3.org/2000/svg">
<g clip-path="url(#clip0_305_15)">
<circle cx="256" cy="256" r="256" fill="white"/>
<path d="M139.409 177.753V178.01V178.268V178.526V178.784V179.041V179.299V179.557V179.815V179.943V180.072V180.33V180.459V180.588V180.717V180.846V180.974V181.103V181.232V181.361V181.49V181.619V181.748V181.876V182.005L139.538 182.134L139.667 182.263L139.796 182.521L139.925 182.779L140.053 183.036C141.471 184.712 143.662 185.485 146.368 185.485C152.038 185.485 155.517 181.619 155.775 175.691L156.033 169.892C156.162 167.959 156.291 166.928 156.548 166.283C156.935 165.253 157.708 164.866 158.481 164.608C158.997 164.479 158.868 163.964 158.353 163.964H150.878C150.492 163.964 150.363 164.479 150.749 164.608C152.167 165.124 153.069 165.51 153.456 166.412C153.713 167.057 153.971 168.088 153.971 170.278V173.887C153.971 178.397 153.198 180.717 151.909 181.876C150.749 183.165 148.945 183.294 147.914 183.294C145.724 183.294 144.177 182.392 143.275 181.49C142.244 180.588 141.6 178.655 141.6 175.949V172.34C141.6 168.99 141.729 166.412 142.373 165.639C142.631 165.124 143.146 164.866 144.177 164.608C144.693 164.479 144.564 163.964 144.048 163.964H136.058C135.543 163.964 135.543 164.608 136.058 164.608C136.961 164.866 137.991 165.124 138.249 165.897C138.507 166.283 138.507 166.799 138.507 169.505V177.753H139.409Z" fill="black"/>
<path d="M188.13 174.789V174.273V173.629V173.114V172.598V172.083V171.567V171.052V170.536V170.278V170.021V169.763V169.634V169.376V169.248V168.99V168.861V168.732V168.603V168.474V168.345V168.217V167.83V167.701V167.572C188.517 165.897 189.419 165.381 190.579 164.866C191.094 164.737 191.094 164.222 190.45 164.222H182.718C182.202 164.222 182.073 164.737 182.589 164.866C185.037 165.51 185.553 165.897 185.81 168.217C185.939 170.021 186.197 171.567 186.197 174.66V179.428C186.197 179.815 186.068 179.944 185.81 179.557C180.14 173.629 176.145 168.732 174.728 166.799C173.955 165.768 173.568 165.253 173.439 164.737C173.439 164.479 173.181 164.479 172.537 164.479C172.022 164.479 171.506 164.479 171.12 164.479C169.96 164.479 168.8 164.222 167.511 164.222C166.996 164.222 166.996 164.737 167.382 164.866C168.413 165.124 169.831 165.639 170.346 166.67C170.733 167.315 170.862 167.83 170.862 169.892V175.047C170.862 178.655 170.733 181.748 170.475 182.65C170.218 183.423 169.444 184.067 168.671 184.325L167.64 184.712C167.254 184.969 167.254 185.356 167.898 185.356H175.501C176.145 185.356 176.145 184.84 175.759 184.712L174.341 184.196C173.31 183.81 172.408 183.165 172.408 177.366V173.242C172.408 171.052 172.408 170.278 172.408 169.763C172.408 169.376 172.537 169.119 172.666 169.376C175.759 172.856 181.3 179.557 184.78 183.81C184.908 183.938 185.424 184.454 185.939 184.969C186.197 185.227 186.841 185.614 187.228 185.614C187.486 185.614 187.872 185.485 187.743 184.712C187.743 184.325 187.615 182.263 187.615 178.526V174.789H188.13Z" fill="black"/>
<path d="M206.172 176.851V177.109V177.366V177.624V177.882V178.139V178.397V178.655V178.913V179.17V179.428V179.686V179.815V180.073V180.201V180.33V180.459V180.846V181.232V181.49V181.748V182.006V182.263V182.521V182.779C206.043 183.681 204.883 184.196 203.852 184.325C203.336 184.454 203.465 184.969 203.981 184.969H212.099C212.615 184.969 212.615 184.454 212.228 184.325C211.068 184.067 210.038 183.681 209.78 182.521C209.522 181.361 209.522 179.557 209.522 176.593V172.212C209.522 169.248 209.522 167.443 209.78 166.284C209.909 165.124 211.068 164.737 211.971 164.48C212.486 164.351 212.486 163.835 211.842 163.835H204.239C203.594 163.835 203.594 164.351 203.981 164.48C205.012 164.737 206.043 165.124 206.3 166.413C206.429 167.443 206.429 169.248 206.429 172.212V176.851H206.172Z" fill="black"/>
<path d="M238.527 171.052L238.655 170.665L238.784 170.279L238.913 169.892L239.042 169.634L239.171 169.376L239.3 169.119L239.429 168.861L239.557 168.603L239.686 168.346L239.815 168.088L239.944 167.83L240.073 167.701L240.202 167.443L240.331 167.315L240.46 167.186L240.588 167.057L240.717 166.928L240.846 166.799L240.975 166.67L241.104 166.541L241.233 166.412L241.362 166.284L241.49 166.155L241.619 166.026L241.748 165.897H241.877L242.006 165.768H242.135H242.264H242.393H242.521H242.65L243.681 165.253C244.068 165.124 244.197 164.608 243.552 164.608H236.207C235.691 164.608 235.691 165.124 236.078 165.253L236.594 165.51C238.14 166.026 238.398 166.67 237.753 168.732C237.109 170.923 234.532 177.366 232.985 180.459C232.599 181.232 232.47 181.103 232.212 180.459C230.794 177.237 229.248 173.371 227.831 169.119C227.186 167.057 226.8 166.284 228.088 165.639L229.377 165.124C229.764 164.995 229.764 164.479 229.248 164.479H221.258C220.614 164.479 220.614 164.866 221.129 165.124L221.903 165.51C223.191 166.155 223.449 166.67 224.738 169.763C226.026 172.856 227.573 176.851 228.475 179.557C229.506 182.392 229.764 183.294 230.666 185.614C230.794 186 230.923 186.129 231.181 186.129C231.439 186.129 232.083 185.614 232.727 184.196C233.114 183.552 233.501 182.392 234.274 180.459C236.207 176.078 237.367 173.371 238.527 171.052Z" fill="black"/>
<path d="M256.568 177.237V177.366V177.495V177.882V178.139V178.397V178.655V178.912V179.17V179.428V179.686V179.943V180.201V180.33V180.459V180.588V180.717V180.846V180.974V181.103V181.232V181.361V181.49V181.619V181.748V181.876V182.005V182.134C256.31 183.552 254.764 183.809 253.088 184.067C252.702 184.067 252.702 184.712 253.217 184.712H267.779C269.068 184.712 269.326 184.712 269.584 184.067C269.841 182.65 270.099 180.717 270.099 180.201C270.099 179.815 269.584 179.815 269.455 180.201C269.326 180.846 268.939 181.49 268.553 182.005C268.037 182.521 267.522 182.779 266.748 182.907C265.975 183.036 264.815 183.036 263.656 183.036C261.723 183.036 260.692 182.907 260.305 182.392C259.918 181.876 259.918 180.717 259.918 177.237V175.562C259.918 174.918 260.047 174.918 260.821 174.918H262.238C264.815 174.918 265.975 175.175 266.491 176.077C266.748 176.593 266.877 177.108 267.006 177.366C267.006 177.753 267.65 177.753 267.65 177.366C267.65 174.531 267.779 173.242 267.908 172.469C267.908 172.083 267.651 172.083 267.522 172.34C267.393 172.598 267.006 172.985 266.362 173.242C265.975 173.371 264.815 173.5 262.109 173.5H261.078C260.047 173.371 260.047 173.5 260.047 172.856V170.15C260.047 168.603 260.047 167.314 260.176 166.928C260.305 166.155 260.434 166.026 261.465 166.026H262.754C264.429 166.026 265.331 166.026 266.362 166.283C267.264 166.541 268.037 167.572 268.166 168.732C268.295 169.376 268.939 169.247 268.81 168.603C268.681 167.314 268.81 165.51 269.068 164.35C269.068 164.093 269.068 163.964 268.939 163.964C268.939 163.964 268.681 163.964 268.424 164.222C268.037 164.35 266.362 164.35 263.784 164.35H258.759C257.212 164.35 256.181 164.222 254.506 164.222C253.991 164.222 253.991 164.737 254.506 164.866C255.795 165.124 256.826 165.639 256.954 166.928C257.083 168.088 257.083 169.119 257.083 171.954V177.237H256.568Z" fill="black"/>
<path d="M281.826 178.526V178.655V178.784V178.912V179.041V179.17V179.299V179.428V179.557V179.686V179.815V179.943V180.072V180.201V180.33V180.459V180.588V180.717V180.845V180.974V181.103V181.232V181.361V181.49V181.619V181.748V181.876V182.005V182.134C281.697 183.552 281.182 183.938 279.378 184.454C278.862 184.583 278.991 185.098 279.506 185.098H288.012C288.527 185.098 288.527 184.583 288.012 184.454C285.821 183.938 285.563 183.423 285.177 181.876C285.048 181.361 285.048 180.717 285.048 179.17V177.108C285.048 176.206 285.048 176.077 285.305 176.077C286.079 176.077 286.852 175.949 287.496 175.949C288.012 175.949 288.398 175.949 288.785 176.979C290.202 179.815 291.491 182.134 293.295 183.809C294.455 184.84 296.259 185.356 298.063 185.356C299.094 185.356 299.867 185.227 300.125 185.098C300.254 185.098 300.254 184.712 299.996 184.712C299.867 184.712 298.579 184.325 296.903 183.036C295.228 181.619 292.78 178.655 291.104 175.175C290.976 174.789 290.976 174.66 291.233 174.402L292.264 173.758C293.166 173.242 294.326 171.696 294.326 169.634C294.326 168.216 293.94 163.964 286.723 164.093C283.63 164.093 279.635 164.608 278.991 164.737C278.475 164.866 278.347 165.381 278.991 165.381C279.893 165.51 281.053 165.639 281.311 166.026C281.439 166.155 281.568 166.412 281.697 167.057C281.697 167.83 281.826 168.99 281.826 170.794V178.526ZM284.79 169.119V168.861V168.732V168.603V168.474V168.345V168.216V167.83V167.701V167.572V167.443V167.314V167.186V167.057V166.928V166.799V166.67V166.541C284.919 166.155 284.919 166.026 285.692 166.026C289.043 166.026 291.104 168.603 291.104 171.567C291.104 174.402 289.043 175.304 287.367 175.304C286.336 175.304 285.821 175.304 285.048 175.304C284.661 175.304 284.661 175.175 284.661 174.531V169.119H284.79Z" fill="black"/>
<path d="M317.918 163.706H317.789H317.531H317.403H317.274H317.145H317.016H316.887H316.758H316.629H316.501H316.372H316.243H316.114H315.985H315.856H315.727L315.598 163.835H315.47L315.341 163.964H315.212L315.083 164.092L314.954 164.221L314.696 164.35L314.439 164.479L314.181 164.737L313.923 164.994L313.794 165.123L313.665 165.252C312.248 166.67 311.861 168.087 311.861 169.505C311.861 172.082 313.408 173.629 316.758 174.788C319.336 175.69 321.269 176.979 321.269 179.557C321.269 182.134 319.98 183.294 317.66 183.294C315.727 183.294 313.665 182.134 313.021 180.845C312.635 180.072 312.635 179.685 312.635 179.428C312.635 179.041 312.119 178.912 311.99 179.299C311.861 179.814 311.346 180.845 311.088 181.232C310.83 181.618 310.573 182.134 310.702 182.52C310.83 183.165 311.475 183.809 312.377 184.325C313.279 184.84 314.568 185.227 316.114 185.227C317.66 185.227 319.465 184.711 320.882 183.551C322.171 182.52 323.846 180.716 323.846 178.01C323.846 174.531 321.398 173.371 318.434 172.34C316.372 171.567 314.31 170.536 314.31 167.958C314.31 166.025 315.598 164.866 317.145 164.866C318.562 164.866 319.722 165.381 320.495 166.283C321.14 167.056 321.269 167.572 321.398 167.958C321.398 168.474 322.042 168.474 322.042 167.958C322.042 167.056 322.171 166.412 322.171 166.025C322.3 165.639 322.3 165.381 322.3 165.123C322.3 164.866 322.3 164.479 321.784 164.092C320.753 164.479 319.851 163.706 317.918 163.706Z" fill="black"/>
<path d="M335.444 176.851V177.109V177.366V177.624V177.882V178.139V178.397V178.655V178.913V179.17V179.428V179.686V179.815V180.073V180.201V180.33V180.459V180.846V181.232V181.49V181.748V182.006V182.263V182.521V182.779C335.315 183.681 334.155 184.196 333.124 184.325C332.609 184.454 332.738 184.969 333.253 184.969H341.372C341.888 184.969 341.887 184.454 341.501 184.325C340.341 184.067 339.31 183.681 339.052 182.521C338.795 181.361 338.795 179.557 338.795 176.593V172.212C338.795 169.248 338.795 167.443 339.052 166.284C339.181 165.124 340.341 164.737 341.243 164.48C341.759 164.351 341.759 163.835 341.114 163.835H333.511C332.996 163.835 332.867 164.351 333.253 164.48C334.284 164.737 335.315 165.124 335.573 166.413C335.702 167.443 335.702 169.248 335.702 172.212V176.851H335.444Z" fill="black"/>
<path d="M360.187 164.35H359.929H359.671H359.413H359.156H358.898H358.769H358.511H358.382H358.254H358.125H357.996H357.867H357.738H357.609H357.48H357.351H357.223H357.094H356.965H356.836H356.707H356.578H356.449H356.321C355.805 164.221 355.418 164.093 355.032 163.706C354.774 163.448 354.387 163.448 354.387 164.093C354.387 166.154 354.13 168.087 354.13 168.474C354.13 168.99 354.645 169.118 354.774 168.603C354.903 167.959 355.418 166.928 356.192 166.541C357.351 166.026 360.444 166.026 361.475 166.026C362.12 166.026 362.248 166.154 362.248 166.928C362.248 167.314 362.377 168.474 362.377 171.954V176.722C362.377 180.33 362.248 181.876 362.12 182.521C361.991 183.809 360.573 184.067 358.898 184.454C358.382 184.583 358.382 185.098 359.027 185.098H368.434C369.078 185.098 369.078 184.583 368.563 184.454C366.63 183.809 365.857 183.68 365.599 182.005C365.47 180.845 365.47 179.557 365.47 176.335V171.696C365.47 168.474 365.599 166.799 365.599 166.283C365.599 165.897 365.728 165.768 366.372 165.768C368.692 165.768 369.723 165.897 370.625 166.026C371.913 166.412 372.171 167.185 372.558 168.087C372.687 168.474 373.202 168.474 373.202 167.959C373.331 166.154 373.331 164.866 373.846 163.577C373.975 163.191 373.589 163.062 373.331 163.319C372.687 163.706 371.785 164.093 370.883 164.093C370.238 164.093 369.207 164.093 367.403 164.093H360.187V164.35Z" fill="black"/>
<path d="M392.541 176.851V176.593V176.464V176.335V176.207V176.078V175.949V175.82V175.691V175.562V175.433V175.304V175.176V175.047V174.918V174.789C393.315 173.114 395.248 170.279 396.923 167.959C398.34 166.026 398.727 165.639 400.918 164.866C401.433 164.737 401.304 164.222 400.789 164.222H394.217C393.572 164.222 393.572 164.737 393.959 164.866C395.505 165.382 395.892 165.768 395.248 167.315C394.474 169.248 392.799 171.954 391.768 173.5C391.511 173.887 391.382 174.016 391.124 173.629C389.706 171.567 388.16 168.861 387.387 167.186C386.485 165.511 386.871 165.382 388.675 164.737C389.062 164.608 389.062 164.093 388.547 164.093H381.072C380.557 164.093 380.557 164.608 381.072 164.737C382.619 165.253 382.748 165.639 384.423 168.217C385.84 170.536 387.129 172.727 388.418 175.176C388.804 175.82 388.933 176.335 388.933 177.237V179.686C388.933 181.748 388.804 182.65 388.418 183.165C387.902 183.81 386.614 184.196 385.711 184.454C385.325 184.583 385.325 185.098 385.84 185.098H394.603C395.248 185.098 395.248 184.583 394.732 184.454C393.186 183.939 392.541 183.681 392.155 182.779C391.897 182.263 391.768 181.104 391.768 179.299V176.851H392.541Z" fill="black"/>
<path d="M438.032 163.706H437.516H437.001H436.485H435.97L435.454 163.835L434.939 163.964L434.423 164.092L433.908 164.221L433.393 164.35L432.877 164.608L432.362 164.866L432.104 164.994L431.846 165.123L431.588 165.252L431.331 165.381L431.073 165.51L430.815 165.639L430.557 165.768L430.3 165.897L430.042 166.025L429.784 166.154C427.336 168.345 426.176 171.18 426.176 174.273C426.176 180.716 430.429 184.969 436.228 184.969C439.836 184.969 442.929 183.423 444.991 181.103C446.666 179.299 447.697 176.721 447.697 173.371C447.964 168.474 444.227 163.706 438.032 163.706ZM438.032 184.067H437.516H437.001H436.485L435.97 183.938L435.583 183.809L435.197 183.68L434.81 183.551L434.423 183.294L434.037 183.165L433.65 182.907L433.264 182.649L433.006 182.392L432.748 182.134L432.49 181.876L432.233 181.49L431.975 181.232L431.717 180.845L431.46 180.459L431.331 180.072L431.202 179.685L431.073 179.299L430.944 178.912L430.815 178.526L430.686 178.139L430.557 177.752L430.429 177.366L430.3 176.979V176.464V176.077V175.562V175.046V174.531C430.3 170.407 431.588 165.51 436.743 165.51C442.413 165.51 444.733 170.149 444.733 175.69C444.355 180.072 442.8 184.067 438.032 184.067Z" fill="black"/>
<path d="M461.366 177.237V177.366V177.495V177.624V177.753V178.011V178.268V178.526V178.784V179.042V179.299V179.557V179.815V179.944V180.072V180.201V180.33V180.459V180.588V180.717V180.846V180.975V181.103V181.232V181.361V181.49V181.619V181.748V181.877V182.005V182.134C461.108 183.165 459.949 183.681 458.789 183.939C458.402 184.067 458.402 184.583 458.918 184.583H467.681C468.454 184.583 468.325 184.067 467.938 183.939C466.134 183.423 465.103 182.908 464.974 181.877C464.717 181.103 464.717 180.33 464.717 176.722V175.304C464.717 174.66 464.717 174.66 465.876 174.66H466.907C469.356 174.66 470.645 174.918 471.16 175.82C471.547 176.335 471.675 176.851 471.804 177.237C471.804 177.495 472.449 177.495 472.449 177.109C472.449 174.402 472.578 172.856 472.578 172.083C472.578 171.696 472.32 171.567 472.062 171.954C471.804 172.34 471.418 172.598 470.902 172.727C470.516 172.856 469.356 172.856 466.907 172.856H465.619C464.588 172.856 464.588 172.856 464.588 172.212V169.248C464.588 167.83 464.588 166.413 464.717 165.768C464.845 165.253 464.845 165.124 465.49 165.124H466.907C468.711 165.124 469.485 165.124 470.516 165.382C471.675 165.768 472.191 166.928 472.32 167.83C472.449 168.346 473.093 168.217 472.964 167.701C472.964 166.413 473.093 164.608 473.351 163.449C473.351 163.062 473.222 163.062 472.964 163.191C472.32 163.449 470.902 163.577 469.485 163.577H463.299C461.753 163.577 460.206 163.449 458.531 163.449C458.016 163.449 458.015 164.093 458.402 164.093C459.949 164.351 460.979 164.995 461.237 166.799C461.366 167.572 461.366 168.861 461.366 171.438V177.237Z" fill="black"/>
<path d="M55.8937 246.706V247.351V247.995V249.155V250.186V251.217V252.248V253.15V254.052V254.825V255.598V256.371V257.145V257.789V258.433V258.949V259.464V259.98V260.495V261.011V261.397V261.784V262.17V262.557V262.815V263.072V263.33V263.588V263.846V264.103V264.232V264.361L55.7648 264.748C54.605 269.387 49.4503 270.418 43.7802 271.578C42.4915 271.707 42.4915 273.768 44.2956 273.768H94.1766C98.6869 273.768 99.7179 273.64 100.233 271.449C101.264 266.423 101.909 260.108 101.909 258.433C101.909 257.145 100.233 256.887 99.7179 258.304C99.0735 260.366 98.0426 262.815 96.7539 264.49C95.0786 266.165 93.0167 267.325 90.5683 267.712C88.1198 268.227 83.996 268.356 80.0011 268.356C73.3 268.356 69.6917 267.969 68.5319 266.165C67.3721 264.49 66.9855 260.366 66.9855 248.639V240.778C66.9855 238.845 67.501 238.588 69.9495 238.588H74.9661C83.6002 238.588 87.8528 239.619 89.5281 242.454C90.5591 244.258 91.0745 245.804 91.2034 246.706C91.3323 248.124 93.2653 247.866 93.2653 246.577C93.2653 236.783 93.7808 232.531 94.1674 229.825C94.2962 228.665 93.1364 228.278 92.6209 229.18C92.1055 229.954 90.8168 231.5 88.7549 232.144C87.2085 232.66 83.4714 233.175 74.064 233.175H70.5846C67.1052 232.917 67.1052 233.046 67.1052 230.984V221.964C67.1052 216.809 67.234 212.299 67.4918 210.752C67.8784 208.046 68.1361 207.788 71.6155 207.788H75.997C82.0538 207.788 85.0178 207.917 88.3683 208.948C91.59 209.85 94.0385 213.458 94.6828 217.196C95.0694 219.258 97.1313 218.871 97.0024 216.68C96.6158 212.556 97.0024 206.371 97.9045 202.376C98.0334 201.474 97.5179 201.216 97.2602 201.216C97.1313 201.216 96.3581 201.345 95.5849 201.86C94.0385 202.376 88.3683 202.505 79.6053 202.505H61.435C56.2803 202.505 52.4143 201.989 46.873 201.989C45.0688 201.989 44.8111 203.793 46.7441 204.309C50.8679 205.34 54.605 207.144 55.2494 211.525C55.8937 215.778 55.8937 218.871 55.8937 228.923V246.706Z" fill="black"/>
<path d="M65.0433 161H63.6257H62.2082H60.7906L59.502 161.129L58.2133 161.258L56.9246 161.387L55.6359 161.515L54.4761 161.644L53.3163 161.773L52.1565 162.031L50.9967 162.289L49.8369 162.546L48.806 162.804L47.775 163.062L46.7441 163.32L45.7131 163.706L44.6822 164.093L43.6513 164.479L42.7492 164.866L41.8471 165.253L40.043 166.155L38.2388 167.186L36.4347 168.217L34.7594 169.376L33.0841 170.665L31.4088 171.954C25.6098 176.593 22.0015 181.877 20.584 185.485C19.1664 188.964 20.584 191.413 22.1304 192.573C23.5479 193.732 25.3521 193.217 25.8675 190.768C27.6717 179.299 35.0171 167.959 54.2184 167.959C74.966 167.959 94.9497 177.882 116.084 199.66C127.811 211.774 142.244 231.362 153.078 246.964C153.98 248.381 153.98 248.768 152.176 251.088C146.248 258.433 140.707 265.778 134.521 273.639C121.377 289.748 120.217 291.294 108.103 295.676C106.042 296.578 105.784 298.64 108.619 298.64H141.738C144.702 298.64 144.702 296.578 142.253 295.676C134.65 292.712 131.944 291.939 137.614 282.273C143.542 272.351 152.563 259.979 156.686 254.696C157.589 253.536 158.104 253.794 159.006 255.082C166.094 265.392 171.248 272.995 174.857 278.021C180.785 286.268 186.584 295.031 195.991 306.372C213.388 326.862 239.171 352 274.223 352C293.553 352 312.892 344.139 320.238 324.422C320.753 322.618 320.495 321.201 319.593 320.299C318.691 319.397 317.789 319.139 317.016 320.814C315.856 324.036 314.696 327.773 311.732 331.639C306.964 338.082 299.103 343.624 280.933 343.624C254.515 343.624 230.794 325.196 205.536 294.645C191.748 278.021 180.923 261.784 168.285 243.991C167.125 242.444 167.125 241.929 168.027 240.511C173.826 233.424 179.109 226.722 187.099 217.702C195.604 208.037 197.022 206.877 208.878 202.753C211.197 202.109 211.455 199.789 208.62 199.789H173.181C170.604 199.789 170.475 202.109 172.924 202.753C180.914 205.459 182.847 206.877 179.367 213.578C175.243 220.537 170.218 227.624 165.321 234.068C163.516 236.645 163.001 236.645 162.099 235.485C155.656 226.207 148.826 216.671 141.867 208.165C117.502 178.139 94.6828 161.902 65.0433 161Z" fill="#25559F"/>
<path d="M229.239 246.706V247.351V247.995V249.155V250.186V251.217V252.248V253.15V254.052V254.825V255.598V256.371V257.145V257.789V258.433V258.949V259.464V259.98V260.495V261.011V261.397V261.784V262.17V262.557V262.815V263.072V263.33V263.588V263.846V264.103V264.232V264.361V264.748C228.079 269.387 222.924 270.418 217.254 271.578C215.837 271.707 215.837 273.768 217.77 273.768H266.877C271.388 273.768 272.419 273.64 272.934 271.449C273.965 266.423 274.609 260.108 274.609 258.433C274.609 257.145 272.934 256.887 272.419 258.304C271.774 260.366 270.743 262.815 269.455 264.49C267.779 266.165 265.718 267.325 263.269 267.712C260.692 268.227 256.697 268.356 252.702 268.356C246.001 268.356 242.393 267.969 241.233 266.165C240.073 264.49 239.686 260.366 239.686 248.639V240.778C239.686 238.845 240.202 238.588 242.65 238.588H247.676C256.31 238.588 260.563 239.619 262.238 242.454C263.269 244.258 263.656 245.804 263.913 246.706C264.042 248.124 265.846 247.866 265.846 246.577C265.846 236.783 266.362 232.531 266.748 229.825C266.877 228.665 265.718 228.278 265.202 229.18C264.687 229.954 263.398 231.5 261.336 232.144C259.79 232.66 255.924 233.175 246.645 233.175H243.166C239.686 232.917 239.686 233.046 239.686 230.984V221.964C239.686 216.809 239.815 212.299 240.073 210.752C240.331 208.046 240.717 207.788 244.197 207.788H248.578C254.635 207.788 257.599 207.917 260.949 208.948C264.171 209.85 266.62 213.458 267.264 217.196C267.522 219.258 269.712 218.871 269.584 216.68C269.197 212.556 269.584 206.371 270.357 202.376C270.486 201.474 270.099 201.216 269.712 201.216C269.584 201.216 268.939 201.345 268.037 201.86C266.491 202.376 260.821 202.505 252.058 202.505H234.789C229.635 202.505 225.769 201.989 220.227 201.989C218.423 201.989 218.294 203.793 220.098 204.309C224.222 205.34 227.959 207.144 228.604 211.525C229.248 215.778 229.248 218.871 229.248 228.923L229.239 246.706Z" fill="black"/>
<path d="M301.8 202.496H300.898H299.996H299.223H298.45H297.805H297.032H296.388H295.744H295.099H294.455H293.939H293.424H292.908H292.393H291.878H291.491H291.104H290.718H290.331H289.945H289.687H289.429H289.171H288.914H288.656H288.398H288.14H287.883H287.754H287.625H287.496H287.367C285.563 201.98 284.274 201.465 283.243 200.434C282.212 199.403 281.053 199.532 281.053 201.593C281.053 208.681 280.022 215.253 280.022 216.8C280.022 218.604 281.826 218.991 282.341 217.315C282.986 215.125 284.661 211.774 287.238 210.356C291.104 208.295 301.929 208.552 305.28 208.552C307.471 208.552 307.728 209.068 307.728 211.903C307.728 213.32 308.115 217.058 308.115 228.913V245.408C308.115 257.909 307.471 263.063 307.084 265.383C306.568 269.893 301.929 270.538 296.001 272.213C294.326 272.728 294.326 274.404 296.388 274.404H328.476C330.667 274.404 330.796 272.728 329.12 272.213C322.677 270.022 319.842 269.378 318.94 263.836C318.424 259.842 318.424 255.589 318.424 244.506V228.656C318.424 217.573 318.811 211.774 319.069 210.228C319.197 208.81 319.455 208.423 321.646 208.423C329.507 208.423 333.373 208.939 336.208 209.583C340.332 210.743 341.62 213.578 342.78 216.671C343.425 218.217 344.971 217.831 345.1 216.413C345.486 210.228 345.486 205.846 347.291 201.336C347.677 200.176 346.389 199.66 345.486 200.305C343.296 201.722 340.074 202.753 337.11 203.011C334.79 203.011 331.311 203.14 325.125 203.14H301.8V202.496Z" fill="black"/>
<path d="M364.697 246.706V247.351V247.995V249.155V250.186V251.217V252.248V253.15V254.052V254.825V255.598V256.371V257.145V257.789V258.433V258.949V259.464V259.98V260.495V261.011V261.397V261.784V262.17V262.557V262.815V263.072V263.33V263.588V263.846V264.103V264.232V264.361V264.748C363.537 269.387 358.382 270.418 352.712 271.578C351.295 271.707 351.295 273.768 353.228 273.768H403.109C407.619 273.768 408.65 273.64 409.165 271.449C410.196 266.423 410.841 260.108 410.841 258.433C410.841 257.145 409.165 256.887 408.65 258.304C408.006 260.366 406.975 262.815 405.686 264.49C404.011 266.165 401.949 267.325 399.5 267.712C397.052 268.227 393.057 268.356 389.062 268.356C382.361 268.356 378.753 267.969 377.593 266.165C376.433 264.49 376.046 260.366 376.046 248.639V240.778C376.046 238.845 376.562 238.588 379.01 238.588H384.036C392.67 238.588 396.923 239.619 398.598 242.454C399.629 244.258 400.016 245.804 400.274 246.706C400.402 248.124 402.207 247.866 402.207 246.577C402.207 236.783 402.722 232.531 403.109 229.825C403.237 228.665 402.078 228.278 401.562 229.18C401.047 229.954 399.758 231.5 397.696 232.144C396.15 232.66 392.284 233.175 383.005 233.175H379.526C376.046 232.917 376.046 233.046 376.046 230.984V221.964C376.046 216.809 376.175 212.299 376.433 210.752C376.691 208.046 377.077 207.788 380.557 207.788H384.938C390.995 207.788 393.959 207.917 397.31 208.948C400.531 209.85 402.98 213.458 403.624 217.196C403.882 219.258 406.073 218.871 405.944 216.68C405.557 212.556 405.944 206.371 406.717 202.376C406.846 201.474 406.459 201.216 406.073 201.216C405.944 201.216 405.299 201.345 404.397 201.86C402.851 202.376 397.181 202.505 388.418 202.505H371.269C366.114 202.505 362.248 201.989 356.707 201.989C354.903 201.989 354.774 203.793 356.578 204.309C360.702 205.34 364.439 207.144 365.084 211.525C365.728 215.778 365.728 218.871 365.728 228.923V246.706H364.697Z" fill="black"/>
<path d="M427.722 250.701V251.345V251.861V252.505V253.021V253.536V254.052V254.567V255.083V255.598V256.114V256.629V257.016V257.531V257.918V258.304V258.691V259.078V259.464V259.851V260.237V260.624V261.011V261.268V261.526V261.784V262.042V262.299V262.557V262.815V263.072V263.33V263.588C427.078 268.485 425.532 269.774 419.217 271.449C417.413 271.964 417.671 273.64 419.604 273.64H448.599C450.661 273.64 450.661 271.964 448.728 271.449C441.382 269.516 440.222 267.969 439.192 262.557C438.805 260.495 438.676 258.691 438.676 253.407V246.32C438.676 243.098 438.805 242.84 439.707 242.84C442.413 242.84 445.119 242.454 447.439 242.325C449.243 242.196 450.403 242.454 451.949 245.675C456.975 255.34 461.357 263.201 467.542 269C471.408 272.351 477.723 274.413 483.909 274.413C487.388 274.413 490.223 273.768 490.996 273.382C491.512 273.253 491.254 272.222 490.61 272.093C489.965 271.964 485.584 270.804 480.043 266.294C474.243 261.655 465.996 251.088 460.326 239.232C459.681 237.814 459.939 237.17 460.841 236.783L464.192 234.593C467.156 232.789 471.151 227.376 471.151 220.417C471.151 215.649 469.991 200.829 444.991 201.603C434.295 201.603 420.763 203.407 418.444 203.793C416.511 204.18 416.253 205.855 418.444 205.984C421.666 206.371 425.274 206.886 426.434 208.046C426.949 208.69 427.465 209.464 427.722 211.654C427.851 214.489 428.367 218.484 428.367 224.541V250.701H427.722ZM438.161 218.862V218.088V217.444V216.8V216.155V215.511V214.996V214.48V213.965V213.449V213.063V212.676V212.289V211.903V211.516V211.13V210.872V210.614V210.356V210.099V209.841V209.583V209.454V209.197V209.068V208.939V208.81V208.681V208.552V208.423V208.295V208.166V208.037C438.547 206.877 438.805 206.362 441.125 206.362C452.851 206.362 459.553 215.125 459.553 225.176C459.553 234.712 452.465 237.676 446.924 237.676C443.444 237.676 441.382 237.676 439.192 237.547C437.774 237.419 437.645 236.903 437.645 234.97V218.862H438.161Z" fill="black"/>
</g>
<defs>
<clipPath id="clip0_305_15">
<rect width="512" height="512" fill="white"/>
</clipPath>
</defs>
</svg>
